<?xml version="1.0" standalone="no"?>
<!DOCTYPE svg PUBLIC "-//W3C//DTD SVG 20010904//EN"
 "http://www.w3.org/TR/2001/REC-SVG-20010904/DTD/svg10.dtd">
<svg version="1.0" xmlns="http://www.w3.org/2000/svg"
 width="213.000000pt" height="213.000000pt" viewBox="0 0 213.000000 213.000000"
 style="background-color: #ffffff"
 preserveAspectRatio="xMidYMid meet">
<metadata>
Created by potrace 1.10, written by Peter Selinger 2001-2011
</metadata>
<g transform="translate(0.000000,213.000000) scale(0.100000,-0.100000)"
fill="#0084ff" stroke="none">
<path d="M725 2055 c-16 -13 -39 -24 -51 -25 -11 0 -31 -11 -44 -25 -13 -14
-30 -23 -36 -21 -7 3 -35 -13 -62 -35 -28 -21 -58 -39 -67 -39 -9 0 -35 -16
-58 -35 -23 -20 -46 -34 -51 -31 -16 5 -66 -26 -66 -41 0 -10 56 -13 268 -13
169 0 272 -4 278 -10 12 -12 758 -19 770 -7 4 4 17 7 29 7 12 0 40 20 65 45
24 25 51 45 60 45 8 0 28 16 45 35 16 20 35 33 42 31 7 -3 35 17 61 44 27 28
58 50 68 50 11 0 24 11 31 25 l11 25 -328 0 c-326 0 -328 0 -323 -21 6 -23
-26 -59 -54 -59 -10 0 -31 -14 -47 -30 -16 -17 -38 -30 -48 -30 -10 0 -38 -20
-61 -45 -24 -25 -53 -45 -64 -45 -11 0 -26 -7 -33 -16 -8 -9 -25 -14 -44 -12
-37 4 -41 22 -7 26 14 2 36 17 50 33 14 16 35 29 46 29 12 0 39 18 60 40 22
22 44 39 50 36 6 -2 28 9 49 24 21 16 43 27 50 24 7 -3 18 7 24 21 l12 25
-298 0 -297 0 -30 -25z"/>
<path d="M2018 2009 c-15 -17 -35 -32 -46 -33 -10 0 -38 -22 -62 -48 -24 -27
-51 -48 -60 -48 -9 0 -29 -13 -45 -30 -16 -16 -36 -30 -45 -30 -9 0 -33 -17
-53 -38 l-37 -38 0 -796 c0 -445 4 -799 9 -802 5 -3 21 12 36 34 15 22 36 40
46 40 10 0 31 16 46 35 15 19 36 35 45 35 9 0 36 25 60 55 24 30 48 53 55 51
6 -3 26 12 44 32 18 20 42 39 53 42 l21 6 0 779 c0 772 0 780 -20 783 -12 1
-30 -10 -47 -29z"/>
<path d="M193 1749 c-6 -6 -25 -14 -43 -18 -67 -13 -26 -26 107 -34 154 -9
367 -2 428 14 22 6 53 13 68 16 15 3 26 10 24 17 -5 16 -568 21 -584 5z"/>
<path d="M900 1731 l-35 -6 0 -805 0 -805 25 -4 c14 -2 180 -5 370 -5 l345 -1
0 815 0 815 -335 1 c-184 1 -351 -1 -370 -5z m648 -398 l2 -203 -300 0 -300 0
0 198 c0 109 3 202 7 205 4 4 137 6 297 5 l291 -3 3 -202z"/>
<path d="M989 1504 c-5 -7 -8 -83 -7 -175 l3 -164 253 -3 252 -2 0 169 c0 104
-4 172 -10 176 -20 12 -481 11 -491 -1z"/>
<path d="M745 1693 c-60 -23 -206 -32 -448 -26 l-217 5 2 -813 3 -814 195 -9
c211 -9 438 6 475 31 11 7 31 13 46 13 15 0 29 7 33 16 3 9 6 370 6 803 0 599
-3 790 -12 799 -16 16 -34 15 -83 -5z"/>
</g>
</svg>
