<?xml version="1.0" standalone="no"?>
<!DOCTYPE svg PUBLIC "-//W3C//DTD SVG 20010904//EN"
 "http://www.w3.org/TR/2001/REC-SVG-20010904/DTD/svg10.dtd">
<svg version="1.0" xmlns="http://www.w3.org/2000/svg"
 width="231.000000pt" height="231.000000pt" viewBox="0 0 231.000000 231.000000"
 style="background-color: #ffffff"
 preserveAspectRatio="xMidYMid meet">
<metadata>
Created by potrace 1.10, written by Peter Selinger 2001-2011
</metadata>
<g transform="translate(0.000000,231.000000) scale(0.100000,-0.100000)"
fill="#0084ff" stroke="none">
<path d="M148 2183 c-37 -38 -70 -80 -73 -95 l-7 -28 1021 0 c1008 0 1021 0
1041 20 11 11 20 28 20 38 0 10 13 29 30 42 21 18 29 34 30 58 l0 32 -998 0
-998 0 -66 -67z"/>
<path d="M2240 2190 c0 -10 -13 -33 -30 -50 -16 -17 -30 -39 -30 -50 0 -10 -8
-23 -17 -29 -17 -9 -18 -67 -21 -953 -2 -519 0 -962 3 -986 7 -45 35 -61 35
-19 0 12 14 35 30 51 17 16 30 37 30 46 0 10 7 23 15 30 13 11 15 134 15 996
0 868 -2 984 -15 984 -8 0 -15 -9 -15 -20z"/>
<path d="M40 1040 l0 -990 1039 0 1038 0 7 53 c8 68 8 1855 0 1896 l-7 31
-1038 0 -1039 0 0 -990z m490 554 c3 -16 16 -51 29 -79 19 -42 21 -55 12 -81
-6 -17 -11 -42 -11 -56 0 -14 -8 -43 -17 -64 -23 -53 -25 -414 -3 -454 7 -14
17 -43 21 -65 4 -22 11 -52 14 -66 5 -18 -1 -44 -19 -81 -14 -30 -26 -64 -26
-76 0 -11 -4 -23 -9 -26 -10 -6 -47 31 -39 40 3 3 -3 29 -13 57 -11 29 -24 88
-30 132 -6 44 -14 105 -19 135 -14 92 -11 335 4 409 8 36 19 91 25 121 28 164
66 236 81 154z m1152 19 c8 -10 15 -29 16 -43 1 -14 8 -41 15 -60 29 -69 42
-202 42 -425 0 -224 -14 -365 -41 -418 -8 -16 -14 -43 -14 -62 0 -36 -21 -60
-45 -51 -8 3 -15 16 -15 29 0 12 -9 40 -20 62 -23 44 -25 71 -9 112 6 15 12
37 14 48 2 11 8 38 14 60 26 104 20 443 -8 480 -5 5 -11 25 -15 43 -3 17 -9
45 -12 62 -4 20 1 44 15 73 12 24 21 55 21 68 0 42 17 50 42 22z m-822 -137
c0 -12 7 -41 16 -65 13 -39 13 -46 -1 -67 -43 -66 -63 -317 -30 -380 8 -16 15
-43 15 -60 0 -17 7 -37 15 -44 16 -13 11 -56 -12 -100 -7 -14 -13 -35 -13 -46
0 -26 -24 -48 -45 -40 -8 3 -15 15 -15 26 0 12 -5 31 -12 43 -28 52 -57 229
-58 347 0 118 23 317 39 333 6 6 11 22 11 35 0 13 10 37 21 54 l21 29 24 -22
c13 -12 24 -32 24 -43z m489 24 c12 -17 19 -35 16 -40 -3 -5 1 -24 9 -42 8
-18 20 -68 27 -112 16 -104 6 -401 -16 -452 -8 -20 -15 -49 -15 -64 0 -15 -7
-33 -15 -40 -8 -7 -15 -25 -15 -41 0 -34 -13 -43 -40 -29 -12 7 -20 21 -20 38
0 15 -7 36 -15 46 -19 25 -19 90 -1 105 8 7 17 31 20 54 3 23 10 79 16 124 10
70 9 98 -5 178 -10 52 -24 100 -31 106 -16 13 -19 95 -4 104 6 4 9 12 8 18 -5
23 24 77 41 77 10 0 27 -14 40 -30z m-268 -330 c23 -13 26 -75 4 -99 -12 -14
-15 -76 -17 -359 -2 -219 -7 -342 -13 -342 -6 0 -11 123 -13 342 -2 283 -5
345 -17 359 -21 22 -19 85 3 98 22 13 29 13 53 1z"/>
</g>
</svg>
