<?xml version="1.0" standalone="no"?>
<!DOCTYPE svg PUBLIC "-//W3C//DTD SVG 20010904//EN"
 "http://www.w3.org/TR/2001/REC-SVG-20010904/DTD/svg10.dtd">
<svg version="1.0" xmlns="http://www.w3.org/2000/svg"
 width="270.000000pt" height="270.000000pt" viewBox="0 0 270.000000 270.000000"
 style="background-color: #ffffff"
 preserveAspectRatio="xMidYMid meet">
<metadata>
Created by potrace 1.10, written by Peter Selinger 2001-2011
</metadata>
<g transform="translate(0.000000,270.000000) scale(0.100000,-0.100000)"
fill="#999999" stroke="none">
<path d="M500 2546 c0 -13 -7 -29 -15 -36 -8 -7 -15 -23 -15 -36 0 -13 -4 -24
-10 -24 -5 0 -10 -10 -10 -22 0 -11 -11 -36 -26 -55 -14 -18 -23 -37 -19 -42
3 -5 -2 -16 -10 -24 -8 -9 -15 -24 -15 -34 0 -10 -7 -27 -15 -37 -8 -10 -12
-23 -9 -27 3 -5 -2 -19 -11 -32 -8 -13 -12 -27 -8 -30 3 -4 -1 -15 -11 -25 -9
-11 -14 -26 -10 -35 4 -11 0 -19 -10 -23 -9 -3 -16 -16 -16 -29 0 -12 -7 -28
-15 -35 -8 -7 -15 -23 -15 -36 0 -12 -5 -26 -10 -29 -5 -3 -10 -15 -10 -26 0
-10 -5 -29 -12 -42 -24 -48 -28 -57 -28 -76 0 -10 -7 -24 -15 -31 -8 -7 -15
-21 -15 -32 0 -11 -9 -31 -20 -45 -11 -14 -20 -34 -20 -44 0 -10 -4 -21 -10
-24 -5 -3 -10 -17 -10 -29 0 -13 -7 -29 -15 -36 -8 -7 -15 -21 -15 -31 0 -11
-5 -28 -12 -38 -6 -10 -8 -26 -5 -35 6 -15 100 -16 1137 -16 l1130 0 0 24 c0
13 7 29 15 36 9 8 15 30 15 60 0 30 6 52 15 60 8 7 15 27 15 45 0 18 6 38 14
44 8 7 16 35 19 64 6 62 29 167 40 184 4 6 10 33 13 60 4 26 11 53 15 59 5 6
12 33 15 60 4 27 11 54 15 60 5 6 12 33 15 60 4 27 10 54 14 59 4 6 13 37 20
70 7 33 17 64 22 70 4 5 8 20 8 33 0 13 4 32 10 42 5 10 7 26 4 34 -6 14 -111
16 -1060 16 l-1054 0 0 -24z m360 -330 c0 -13 -7 -29 -15 -36 -8 -7 -15 -23
-15 -36 0 -13 -4 -24 -9 -24 -15 0 -22 -32 -10 -46 10 -12 107 -14 583 -12
l571 3 3 22 c2 12 10 27 18 33 8 7 14 23 14 35 0 13 7 26 16 29 9 3 14 12 11
19 -8 20 9 41 27 34 9 -4 16 -16 16 -27 0 -13 10 -24 25 -30 15 -6 25 -17 25
-30 0 -12 10 -25 25 -32 14 -6 24 -16 22 -22 -3 -6 2 -23 11 -37 20 -36 11
-55 -32 -63 -27 -5 -36 -12 -36 -26 0 -13 -9 -21 -25 -25 -14 -3 -36 -7 -50
-10 -16 -4 -25 -12 -25 -25 0 -14 -9 -21 -37 -25 -21 -3 -46 -8 -57 -10 -17
-4 -18 1 -13 56 l7 59 -576 0 c-456 0 -575 -3 -571 -12 2 -7 -5 -23 -17 -36
-11 -13 -21 -31 -21 -40 0 -13 -9 -17 -40 -17 -34 0 -41 4 -43 22 -2 15 -14
26 -38 33 -24 8 -34 17 -30 26 3 8 -5 21 -20 30 -35 24 -28 55 14 66 27 7 32
13 27 28 -5 15 -1 20 17 24 13 3 35 7 51 11 18 3 27 12 27 24 0 20 19 31 54
31 27 0 46 18 39 35 -5 14 14 22 55 24 17 1 22 -4 22 -23z"/>
<path d="M2600 2357 c0 -18 -7 -42 -15 -53 -8 -10 -15 -40 -15 -65 0 -29 -6
-51 -15 -59 -10 -8 -15 -30 -15 -61 0 -26 -4 -50 -9 -54 -5 -3 -13 -31 -17
-63 -3 -31 -10 -62 -15 -68 -5 -6 -12 -33 -15 -60 -4 -27 -11 -54 -16 -60 -5
-7 -11 -35 -15 -63 -3 -28 -12 -56 -19 -62 -8 -6 -14 -26 -14 -45 0 -18 -4
-35 -9 -39 -6 -3 -13 -27 -16 -53 -3 -26 -11 -56 -18 -67 -9 -15 -13 -168 -15
-584 -1 -311 0 -571 3 -579 9 -25 23 -1 29 53 3 28 13 84 21 125 9 41 17 82
18 90 2 8 6 22 9 30 4 8 10 38 13 65 4 28 10 55 15 60 4 6 10 33 13 60 8 74
31 177 44 200 6 11 14 40 17 65 3 25 13 79 21 120 9 41 16 82 17 90 0 8 4 20
8 25 4 6 11 36 14 67 4 32 12 60 17 63 5 4 9 199 9 481 0 415 -2 474 -15 474
-10 0 -15 -10 -15 -33z"/>
<path d="M35 1358 c-3 -7 -4 -290 -3 -628 l3 -615 1145 0 1145 0 3 628 2 627
-1145 0 c-907 0 -1147 -3 -1150 -12z m373 -935 l-3 -138 -60 0 c-108 0 -105
-4 -105 138 0 68 3 127 7 130 3 4 42 7 85 7 l79 0 -3 -137z m207 2 l0 -130
-63 -5 c-104 -8 -102 -11 -102 133 0 68 3 127 7 131 4 4 41 5 83 4 l75 -3 0
-130z m203 6 c1 -73 -1 -128 -7 -134 -11 -11 -133 -13 -150 -3 -12 8 -16 248
-4 260 4 4 41 5 83 4 l75 -3 3 -124z m195 -3 c-1 -70 -4 -131 -6 -135 -3 -5
-36 -8 -74 -8 l-68 0 -3 138 -3 138 78 -3 78 -3 -2 -127z m210 0 c-1 -70 -4
-131 -7 -136 -5 -9 -133 -8 -143 1 -7 7 -10 256 -3 263 2 3 38 3 79 2 l76 -3
-2 -127z m202 -8 l0 -135 -65 1 c-114 2 -110 -4 -110 139 0 89 3 125 13 129 6
2 46 4 87 3 l75 -2 0 -135z m210 5 l0 -130 -85 0 -85 0 -3 119 c-1 66 0 126 3
133 3 10 25 13 87 11 l83 -3 0 -130z m199 129 c13 -5 16 -26 16 -129 0 -143 4
-137 -110 -139 l-65 -1 -3 125 c-1 68 0 130 2 137 6 14 129 19 160 7z m202
-127 c0 -71 -4 -131 -9 -134 -15 -9 -138 -10 -143 -1 -7 10 -11 258 -5 264 3
3 39 3 81 2 l75 -3 1 -128z"/>
<path d="M272 487 c-7 -8 -9 -39 -5 -85 7 -81 19 -96 76 -90 l32 3 3 93 3 92
-49 0 c-29 0 -54 -6 -60 -13z"/>
<path d="M485 494 c-6 -2 -10 -36 -8 -81 2 -89 15 -106 73 -101 l35 3 3 93 3
92 -48 -1 c-26 0 -53 -3 -58 -5z"/>
<path d="M682 408 l3 -93 33 -3 c18 -2 43 3 56 11 20 13 22 22 20 86 -2 39 -6
75 -9 81 -3 5 -29 10 -56 10 l-50 0 3 -92z"/>
<path d="M892 408 l3 -93 36 -3 c52 -4 60 12 57 105 l-3 78 -48 3 -48 3 3 -93z"/>
<path d="M1097 494 c-12 -12 -8 -159 5 -172 16 -16 73 -15 87 2 8 9 11 43 9
93 l-3 78 -45 3 c-25 2 -49 0 -53 -4z"/>
<path d="M1293 492 c-7 -5 -12 -36 -11 -85 0 -75 1 -79 26 -88 14 -6 40 -9 56
-7 l31 3 3 93 3 92 -48 0 c-26 0 -53 -4 -60 -8z"/>
<path d="M1492 408 l3 -93 55 0 55 0 3 93 3 92 -61 0 -61 0 3 -92z"/>
<path d="M1702 408 l3 -93 31 -3 c16 -2 42 1 56 7 25 9 26 13 26 88 1 49 -4
80 -11 85 -7 4 -34 8 -60 8 l-48 0 3 -92z"/>
<path d="M1907 494 c-12 -12 -8 -159 5 -172 16 -16 73 -15 87 2 8 9 11 43 9
93 l-3 78 -45 3 c-25 2 -49 0 -53 -4z"/>
</g>
</svg>
