<?xml version="1.0" standalone="no"?>
<!DOCTYPE svg PUBLIC "-//W3C//DTD SVG 20010904//EN"
 "http://www.w3.org/TR/2001/REC-SVG-20010904/DTD/svg10.dtd">
<svg version="1.0" xmlns="http://www.w3.org/2000/svg"
 width="231.000000pt" height="231.000000pt" viewBox="0 0 231.000000 231.000000"
 style="background-color: #ffffff"
 preserveAspectRatio="xMidYMid meet">
<metadata>
Created by potrace 1.10, written by Peter Selinger 2001-2011
</metadata>
<g transform="translate(0.000000,231.000000) scale(0.100000,-0.100000)"
fill="#999999" stroke="none">
<path d="M830 2240 c-8 -5 -24 -10 -36 -10 -11 0 -31 -11 -44 -25 -13 -14 -32
-25 -43 -25 -10 0 -30 -9 -44 -20 -14 -11 -33 -20 -41 -20 -8 0 -30 -11 -48
-25 -18 -14 -40 -25 -49 -25 -9 0 -35 -16 -58 -35 -22 -19 -50 -35 -62 -35
-12 0 -32 -11 -45 -25 -13 -14 -32 -25 -43 -25 -10 0 -30 -9 -44 -20 -14 -11
-33 -20 -43 -20 -9 0 -30 -12 -46 -27 -16 -16 -35 -28 -43 -28 -8 0 -16 -5
-18 -10 -4 -14 1497 -9 1511 5 5 5 20 10 31 10 12 0 34 14 50 30 16 17 36 30
45 30 9 0 36 20 60 45 24 25 51 45 60 45 9 0 29 14 45 30 16 17 36 30 45 30 9
0 29 14 45 30 16 17 36 30 45 30 9 0 29 14 45 30 16 17 39 30 52 30 16 0 23 6
23 20 0 20 -7 20 -667 20 -414 0 -674 -4 -683 -10z"/>
<path d="M2212 2199 c-13 -5 -30 -16 -38 -24 -9 -8 -20 -13 -25 -10 -5 3 -23
-10 -40 -29 -17 -20 -39 -36 -48 -36 -10 0 -30 -13 -46 -30 -16 -16 -36 -30
-45 -30 -9 0 -29 -14 -45 -30 -16 -17 -34 -29 -41 -26 -6 2 -33 -18 -60 -45
-26 -27 -55 -49 -64 -49 -9 0 -28 -13 -43 -28 l-27 -28 0 -861 c0 -633 3 -864
11 -869 7 -4 19 3 29 16 9 13 22 20 28 16 12 -7 22 2 71 62 18 23 41 42 51 42
10 0 28 16 41 35 13 19 29 35 34 36 6 1 15 2 21 3 6 0 23 16 38 33 15 18 36
33 46 33 9 0 30 18 45 40 16 23 34 39 41 36 7 -3 28 13 47 34 19 22 41 40 50
40 16 0 17 65 17 840 0 666 -3 840 -12 839 -7 0 -23 -4 -36 -10z"/>
<path d="M81 1816 c-8 -10 -10 -250 -9 -887 l3 -874 772 -3 c745 -2 773 -1
782 17 7 12 10 324 10 878 l0 860 -25 12 c-18 8 -234 11 -773 11 -619 0 -751
-2 -760 -14z m119 -105 l0 -58 38 -7 c20 -3 74 -6 120 -6 66 0 82 -3 82 -15 0
-13 -22 -15 -136 -15 l-136 0 6 31 c3 17 6 56 6 86 0 34 4 52 10 48 6 -3 10
-32 10 -64z m352 2 l3 -68 98 -5 c141 -7 123 -24 -30 -28 -130 -3 -157 4 -133
33 8 9 11 31 8 59 -6 50 5 76 32 76 17 0 19 -9 22 -67z m487 -73 c63 -3 96 -9
99 -17 3 -10 -22 -13 -101 -13 -110 0 -167 7 -167 21 0 4 10 9 23 11 19 3 22
10 25 58 4 85 16 93 22 15 l5 -70 94 -5z m213 73 l3 -68 98 -5 c138 -7 128
-24 -15 -28 l-118 -3 0 86 c0 68 3 85 15 85 11 0 15 -16 17 -67z m0 -313 l3
-65 98 -3 c73 -2 97 -6 97 -16 0 -10 -25 -13 -112 -12 l-113 1 -3 74 c-2 41 0
81 3 89 11 29 24 -3 27 -68z m-704 10 c2 -30 8 -60 14 -67 7 -9 39 -13 95 -13
63 0 84 -3 80 -12 -2 -9 -36 -13 -115 -15 -126 -2 -153 8 -132 47 7 12 10 38
7 56 -4 23 -1 39 10 49 25 26 38 12 41 -45z m-348 -4 c0 -52 1 -54 33 -61 17
-4 69 -9 115 -12 59 -3 82 -8 82 -18 0 -10 -28 -13 -125 -14 -68 0 -126 3
-129 7 -7 13 6 152 15 152 5 0 9 -24 9 -54z m740 1 c0 -29 5 -58 12 -65 7 -7
44 -12 96 -12 62 0 83 -3 79 -12 -8 -27 -257 -13 -257 14 0 4 10 8 23 10 19 3
22 10 24 48 1 25 2 51 2 58 1 6 6 12 11 12 6 0 10 -24 10 -53z m312 -307 l3
-65 98 -3 c79 -2 97 -6 97 -18 0 -13 -17 -15 -112 -12 l-113 3 -3 74 c-2 41 0
81 3 89 11 29 24 -3 27 -68z m-704 10 c2 -30 8 -60 14 -67 7 -9 39 -13 95 -13
63 0 84 -3 81 -12 -6 -18 -222 -20 -245 -3 -14 11 -15 16 -5 28 8 9 12 36 11
62 -2 32 2 49 12 56 25 16 34 4 37 -51z m-346 -7 c3 -66 -8 -61 141 -70 60 -3
87 -9 84 -17 -4 -12 -243 -21 -250 -8 -8 12 5 152 14 152 4 0 9 -26 11 -57z
m738 4 c0 -29 5 -58 12 -65 7 -7 44 -12 96 -12 62 0 83 -3 79 -12 -5 -17 -176
-19 -223 -3 -19 6 -31 14 -28 18 3 3 12 3 19 1 16 -7 27 25 25 69 -3 47 -1 57
10 57 6 0 10 -24 10 -53z m-392 -288 c1 -19 5 -48 7 -66 l6 -32 86 -3 c59 -2
88 -7 91 -16 3 -10 -23 -12 -120 -10 l-123 3 2 74 c1 49 6 77 15 82 22 14 33
4 36 -32z m411 -93 c11 -13 29 -16 89 -14 54 2 76 -1 79 -10 4 -10 -19 -12
-104 -10 l-108 3 2 72 c2 94 16 117 23 37 3 -34 11 -69 19 -78z m291 71 c0
-35 5 -68 10 -73 6 -6 48 -9 100 -6 77 3 90 1 90 -13 0 -14 -15 -15 -112 -13
l-113 3 -3 83 c-2 68 0 82 13 82 12 0 15 -13 15 -63z m-1049 0 c-2 -38 1 -48
16 -53 10 -3 29 -11 42 -17 13 -7 57 -11 97 -10 59 2 74 -1 74 -12 0 -12 -22
-15 -124 -15 -69 0 -127 3 -129 8 -10 15 6 153 16 149 7 -2 10 -23 8 -50z
m349 -274 c3 -34 8 -65 12 -69 4 -4 44 -7 89 -8 57 -1 84 -5 87 -14 3 -10 -23
-12 -120 -10 l-123 3 -1 73 c-1 57 2 74 15 82 28 16 36 5 41 -57z m700 8 c0
-92 -3 -90 106 -84 84 5 94 4 94 -11 0 -15 -13 -16 -112 -14 l-113 3 -3 83
c-2 68 0 82 13 82 12 0 15 -13 15 -59z m-1050 -1 c0 -40 4 -52 18 -56 9 -3 25
-10 34 -15 10 -5 54 -9 98 -9 64 0 80 -3 80 -15 0 -13 -20 -15 -124 -15 -90 0
-125 3 -128 13 -8 20 4 147 13 147 5 0 9 -23 9 -50z m740 2 c0 -75 13 -85 105
-86 54 -1 80 -5 83 -14 3 -10 -20 -12 -105 -10 l-108 3 2 75 c1 41 2 76 3 78
0 1 5 2 10 2 6 0 10 -22 10 -48z"/>
</g>
</svg>
