<?xml version="1.0" standalone="no"?>
<!DOCTYPE svg PUBLIC "-//W3C//DTD SVG 20010904//EN"
 "http://www.w3.org/TR/2001/REC-SVG-20010904/DTD/svg10.dtd">
<svg version="1.0" xmlns="http://www.w3.org/2000/svg"
 width="276.000000pt" height="276.000000pt" viewBox="0 0 276.000000 276.000000"
 style="background-color: #ffffff"
 preserveAspectRatio="xMidYMid meet">
<metadata>
Created by potrace 1.10, written by Peter Selinger 2001-2011
</metadata>
<g transform="translate(0.000000,276.000000) scale(0.100000,-0.100000)"
fill="#999999" stroke="none">
<path d="M620 2673 c-25 -10 -75 -66 -72 -80 2 -7 -9 -18 -23 -25 -14 -6 -24
-17 -21 -24 6 -14 -13 -36 -50 -61 -13 -8 -24 -24 -24 -34 0 -10 -9 -23 -20
-29 -11 -6 -20 -19 -20 -30 0 -11 -9 -24 -20 -30 -11 -6 -20 -19 -20 -30 0
-11 -9 -24 -20 -30 -11 -6 -20 -19 -20 -30 0 -11 -9 -24 -20 -30 -11 -6 -20
-19 -20 -30 0 -11 -9 -24 -20 -30 -11 -6 -20 -19 -20 -30 0 -11 -9 -24 -20
-30 -11 -6 -20 -19 -20 -30 0 -12 -16 -30 -40 -46 -26 -18 -40 -34 -40 -48 0
-12 -5 -27 -11 -33 -6 -6 -9 -18 -7 -27 3 -15 90 -17 1063 -16 583 0 1068 0
1078 0 10 0 17 8 17 20 0 10 9 24 20 30 11 6 20 18 20 28 0 9 14 30 30 46 17
16 30 38 30 49 0 10 9 21 20 24 13 3 20 14 20 28 0 12 7 28 15 35 8 7 15 21
15 32 0 10 7 21 15 24 8 4 15 17 15 30 0 14 7 27 15 30 8 4 15 17 15 30 0 13
9 28 20 34 11 6 20 20 20 31 0 11 7 22 15 25 8 4 15 16 15 28 0 23 38 66 58
66 7 0 12 11 12 25 0 14 7 28 15 31 8 4 15 17 15 29 0 13 5 27 10 30 6 3 10
17 10 31 l0 24 -1017 -1 c-560 0 -1025 -3 -1033 -6z"/>
<path d="M2670 2548 c0 -14 -14 -34 -35 -51 -19 -15 -35 -37 -35 -48 0 -11 -7
-22 -15 -25 -8 -4 -15 -17 -15 -30 0 -14 -7 -27 -15 -30 -8 -4 -15 -17 -15
-30 0 -14 -7 -27 -15 -30 -8 -4 -15 -17 -15 -31 0 -16 -7 -27 -20 -30 -12 -3
-20 -14 -20 -27 0 -12 -9 -29 -20 -39 -11 -9 -17 -23 -14 -31 3 -8 -3 -19 -15
-26 -12 -6 -21 -18 -21 -28 0 -9 -14 -30 -30 -46 -17 -16 -30 -38 -30 -49 0
-10 -9 -21 -20 -24 -13 -3 -20 -14 -20 -28 0 -12 -7 -28 -15 -35 -13 -11 -15
-123 -15 -901 0 -784 2 -889 15 -889 9 0 15 9 15 24 0 14 4 28 10 31 6 3 10
15 10 25 0 11 16 32 35 47 19 15 35 35 35 44 0 9 7 22 15 29 8 7 15 20 15 30
0 10 7 23 15 30 8 7 15 20 15 30 0 10 7 23 15 30 8 7 15 20 15 30 0 10 7 23
15 30 8 7 15 20 15 30 0 10 7 23 15 30 8 7 15 20 15 30 0 10 7 23 15 30 8 7
15 20 15 29 0 10 14 30 30 46 17 16 30 36 30 46 0 9 7 22 15 29 8 7 15 20 15
30 0 10 7 23 15 30 8 7 15 23 15 36 0 12 5 26 10 29 7 4 10 295 10 841 0 827
0 834 -20 834 -14 0 -20 -7 -20 -22z"/>
<path d="M55 1878 c-3 -7 -4 -418 -3 -913 l3 -900 1090 0 1090 0 0 910 0 910
-1088 3 c-865 2 -1089 0 -1092 -10z m829 -334 c37 -36 66 -74 66 -85 0 -11 7
-22 15 -25 8 -4 15 -16 15 -28 0 -12 13 -33 30 -46 16 -14 29 -35 30 -48 0
-12 7 -25 15 -28 8 -4 15 -17 15 -29 0 -30 14 -39 30 -20 23 28 75 18 113 -20
20 -20 37 -46 39 -58 2 -12 11 -23 21 -25 21 -4 67 36 67 60 0 22 68 88 91 88
23 0 89 -65 89 -88 0 -19 41 -62 60 -62 19 0 60 43 60 63 0 23 35 57 60 57 25
0 60 -34 60 -58 0 -32 44 -64 81 -60 29 2 35 7 37 31 6 47 42 35 116 -39 65
-64 66 -66 66 -118 0 -39 -4 -55 -15 -60 -8 -3 -15 -16 -15 -30 0 -13 -7 -26
-15 -30 -8 -3 -15 -17 -15 -31 l0 -25 -417 -2 -418 -3 -3 -23 c-2 -13 3 -25
12 -28 10 -4 16 -18 16 -35 l0 -29 -67 0 c-58 0 -71 -4 -90 -24 -13 -13 -23
-33 -23 -44 0 -11 -7 -22 -15 -26 -8 -3 -15 -16 -15 -30 0 -13 -7 -26 -15 -30
-8 -3 -15 -14 -15 -25 0 -11 -29 -49 -66 -85 l-65 -66 -64 0 -64 0 -65 66
c-37 36 -66 74 -66 85 0 11 -7 22 -15 25 -8 4 -15 17 -15 30 0 14 -7 27 -15
30 -8 4 -15 17 -15 30 0 14 -7 27 -15 30 -10 4 -15 20 -15 45 0 26 -5 42 -15
45 -11 5 -15 21 -15 60 0 39 -4 56 -15 60 -22 9 -22 239 0 248 10 3 15 19 15
45 0 25 5 41 15 45 10 3 15 19 15 45 0 25 5 41 15 45 8 3 15 16 15 30 0 13 7
26 15 30 8 3 15 16 15 30 0 13 7 26 15 30 8 3 15 14 15 25 0 11 28 49 63 84
l62 65 67 1 67 1 65 -66z"/>
<path d="M643 1526 c-29 -30 -53 -63 -53 -74 0 -11 -7 -22 -15 -26 -8 -3 -15
-16 -15 -30 0 -13 -7 -26 -15 -30 -8 -3 -15 -16 -15 -30 0 -13 -7 -26 -15 -30
-10 -3 -15 -19 -15 -45 0 -25 -5 -41 -15 -45 -10 -3 -15 -19 -15 -45 0 -25 -5
-41 -15 -45 -12 -4 -15 -27 -15 -116 0 -89 3 -112 15 -116 11 -5 15 -21 15
-60 0 -39 4 -56 15 -60 10 -4 15 -20 15 -45 0 -26 5 -42 15 -45 8 -4 15 -17
15 -30 0 -14 7 -27 15 -30 8 -4 15 -17 15 -30 0 -14 7 -27 15 -30 8 -4 15 -15
15 -26 0 -11 24 -44 54 -74 53 -53 55 -54 111 -54 56 0 58 1 111 54 30 30 54
63 54 74 0 11 7 22 15 26 8 3 15 16 15 30 0 13 7 26 15 30 8 3 15 16 15 30 0
13 7 26 15 30 9 3 15 18 15 39 0 19 7 40 15 47 9 8 15 30 15 60 0 30 6 52 15
60 12 10 15 37 15 120 0 83 -3 110 -15 120 -8 7 -15 27 -15 45 0 18 -7 38 -15
45 -8 7 -15 27 -15 45 0 18 -7 38 -15 45 -8 7 -15 21 -15 32 0 10 -7 21 -15
24 -8 4 -15 17 -15 30 0 14 -7 27 -15 30 -8 4 -15 15 -15 26 0 11 -24 44 -54
74 -53 53 -55 54 -112 54 -58 -1 -60 -2 -111 -54z m194 -28 c29 -29 53 -60 53
-69 0 -9 7 -22 15 -29 8 -7 15 -20 15 -30 0 -10 7 -23 15 -30 8 -7 15 -20 15
-30 0 -10 7 -23 15 -30 8 -7 15 -27 15 -45 0 -18 7 -38 15 -45 9 -8 15 -30 15
-60 0 -30 6 -52 15 -60 9 -8 15 -30 15 -60 0 -30 -6 -52 -15 -60 -10 -9 -15
-32 -15 -75 0 -43 -5 -66 -15 -75 -8 -7 -15 -27 -15 -45 0 -18 -7 -38 -15 -45
-8 -7 -15 -20 -15 -30 0 -10 -7 -23 -15 -30 -8 -7 -15 -20 -15 -30 0 -10 -7
-23 -15 -30 -8 -7 -15 -20 -15 -28 0 -9 -23 -40 -52 -69 -70 -71 -94 -71 -165
-1 -29 29 -53 60 -53 69 0 9 -7 22 -15 29 -8 7 -15 20 -15 30 0 10 -7 23 -15
30 -8 7 -15 20 -15 30 0 10 -7 23 -15 30 -8 7 -15 27 -15 45 0 18 -7 38 -15
45 -10 9 -15 32 -15 75 0 43 -5 66 -15 75 -9 8 -15 30 -15 60 0 30 6 52 15 60
9 8 15 30 15 60 0 30 6 52 15 60 8 7 15 27 15 45 0 18 7 38 15 45 8 7 15 20
15 30 0 10 7 23 15 30 8 7 15 20 15 30 0 10 7 23 15 30 8 7 15 20 15 28 0 9
23 40 52 69 70 71 94 71 165 1z"/>
<path d="M552 1137 c-20 -21 -22 -34 -22 -128 0 -97 2 -107 23 -127 33 -31
105 -31 135 1 20 21 22 34 22 128 0 97 -2 107 -23 127 -33 31 -105 31 -135 -1z
m105 -29 c20 -19 23 -31 23 -97 -1 -59 -5 -81 -19 -98 -24 -29 -48 -29 -78 -1
-20 19 -23 31 -23 97 0 63 3 78 22 98 27 29 45 29 75 1z"/>
<path d="M1104 1086 c-3 -8 -4 -27 -2 -43 l3 -28 460 0 460 0 0 25 0 25 -430
3 c-368 2 -431 4 -438 17 -10 19 -46 20 -53 1z"/>
<path d="M1104 935 c-4 -8 -4 -22 0 -30 5 -13 62 -15 429 -15 l424 0 21 23
c12 13 19 27 15 30 -3 4 -204 7 -445 7 -381 0 -439 -2 -444 -15z"/>
</g>
</svg>
